<svg width="28" height="28" viewBox="0 0 28 28" fill="none" xmlns="http://www.w3.org/2000/svg">
<path d="M8.1274 0C3.65144 0 0 3.65144 0 8.1274V19.8726C0 24.3486 3.65144 28 8.1274 28H19.8726C24.3486 28 28 24.3486 28 19.8726V8.1274C28 3.65144 24.3486 0 19.8726 0H8.1274ZM8.1274 2.15385H19.8726C23.1833 2.15385 25.8462 4.8125 25.8462 8.1274V19.8726C25.8462 23.1833 23.1875 25.8462 19.8726 25.8462H8.1274C4.81671 25.8462 2.15385 23.1875 2.15385 19.8726V8.1274C2.15385 4.81671 4.8125 2.15385 8.1274 2.15385ZM22.0769 4.30769C21.1851 4.30769 20.4615 5.03125 20.4615 5.92308C20.4615 6.8149 21.1851 7.53846 22.0769 7.53846C22.9688 7.53846 23.6923 6.8149 23.6923 5.92308C23.6923 5.03125 22.9688 4.30769 22.0769 4.30769ZM14 6.46154C9.84796 6.46154 6.46154 9.84796 6.46154 14C6.46154 18.152 9.84796 21.5385 14 21.5385C18.152 21.5385 21.5385 18.152 21.5385 14C21.5385 9.84796 18.152 6.46154 14 6.46154ZM14 8.61539C16.9868 8.61539 19.3846 11.0132 19.3846 14C19.3846 16.9868 16.9868 19.3846 14 19.3846C11.0132 19.3846 8.61539 16.9868 8.61539 14C8.61539 11.0132 11.0132 8.61539 14 8.61539Z" fill="#3D5A80"/>
</svg>
