<svg width="28" height="28" viewBox="0 0 28 28" fill="none" xmlns="http://www.w3.org/2000/svg">
<path d="M26.8231 4.60874C26.8232 4.40267 26.7687 4.20024 26.6652 4.02207C26.5617 3.84391 26.4127 3.69636 26.2336 3.59447C26.0545 3.49258 25.8516 3.43998 25.6455 3.44203C25.4395 3.44408 25.2376 3.5007 25.0606 3.60613C24.3777 4.01258 23.6425 4.32384 22.8754 4.53129C21.7799 3.59123 20.3826 3.07681 18.9391 3.08207C17.3554 3.08389 15.8344 3.7011 14.6973 4.80335C13.5602 5.9056 12.8959 7.40663 12.8448 8.98946C9.7228 8.4916 6.89323 6.86208 4.89568 4.41163C4.77533 4.2656 4.62162 4.15066 4.44752 4.0765C4.27343 4.00234 4.08405 3.97113 3.89536 3.9855C3.70678 4.00103 3.52482 4.06226 3.36522 4.1639C3.20562 4.26554 3.07317 4.40452 2.97934 4.56884C2.49812 5.40862 2.22174 6.35005 2.17265 7.31669C2.12355 8.28333 2.30313 9.24793 2.69679 10.1321L2.69451 10.1344C2.51758 10.2434 2.37157 10.3959 2.27043 10.5775C2.1693 10.759 2.11643 10.9634 2.11687 11.1712C2.11473 11.3426 2.12501 11.514 2.14764 11.6839C2.2668 13.1519 2.91738 14.526 3.97739 15.5485C3.90548 15.6855 3.86159 15.8354 3.84829 15.9896C3.83499 16.1437 3.85254 16.299 3.89991 16.4463C4.36204 17.8861 5.34483 19.1017 6.65594 19.8551C5.32389 20.3702 3.8856 20.5498 2.46778 20.3781C2.20537 20.3452 1.93955 20.4024 1.71394 20.5404C1.48833 20.6784 1.31631 20.889 1.22612 21.1376C1.13592 21.3862 1.13289 21.6581 1.21754 21.9087C1.30218 22.1592 1.46946 22.3736 1.69195 22.5166C4.13039 24.0871 6.96957 24.9221 9.87001 24.9217C13.1591 24.9587 16.3683 23.9077 18.9983 21.9321C21.6283 19.9565 23.5316 17.1671 24.4123 13.9978C24.8242 12.6172 25.0345 11.1844 25.0367 9.74366C25.0367 9.66732 25.0367 9.58871 25.0355 9.5101C25.6446 8.85319 26.1165 8.08129 26.4235 7.23965C26.7304 6.39801 26.8663 5.50356 26.8231 4.60874V4.60874ZM22.9653 8.35596C22.7726 8.58387 22.6751 8.87723 22.693 9.17514C22.7044 9.36764 22.7033 9.56131 22.7033 9.74366C22.7009 10.9611 22.5225 12.1718 22.1735 13.3382C21.4543 16.0349 19.8509 18.4121 17.6201 20.0893C15.3894 21.7664 12.6603 22.6464 9.87001 22.5884C8.8677 22.5887 7.86885 22.4709 6.8941 22.2375C8.13708 21.8369 9.29929 21.2193 10.3269 20.4134C10.5161 20.2644 10.6547 20.0605 10.7234 19.8296C10.7922 19.5987 10.7878 19.3522 10.7109 19.124C10.634 18.8957 10.4884 18.6968 10.294 18.5545C10.0995 18.4123 9.86587 18.3337 9.62501 18.3296C8.65532 18.3145 7.72933 17.9236 7.04216 17.2393C7.21649 17.2062 7.38967 17.1652 7.5617 17.1162C7.81372 17.0445 8.03425 16.89 8.18781 16.6777C8.34136 16.4654 8.41899 16.2076 8.40821 15.9458C8.39742 15.684 8.29884 15.4334 8.12834 15.2345C7.95784 15.0355 7.72534 14.8997 7.46828 14.849C6.9054 14.7378 6.37575 14.4983 5.92048 14.1492C5.46521 13.8 5.09659 13.3506 4.84328 12.8358C5.05413 12.8646 5.26632 12.8824 5.47902 12.8893C5.7317 12.8931 5.97904 12.8165 6.18529 12.6705C6.39153 12.5244 6.54599 12.3166 6.62632 12.077C6.70329 11.8352 6.69933 11.5749 6.61504 11.3356C6.53074 11.0963 6.3707 10.891 6.1592 10.7508C5.64604 10.4089 5.22568 9.94514 4.93578 9.40093C4.64588 8.85672 4.49548 8.24911 4.49806 7.6325C4.49806 7.55504 4.50034 7.47756 4.5049 7.40122C7.1197 9.83985 10.5113 11.2774 14.0821 11.4606C14.2623 11.4677 14.4418 11.4338 14.607 11.3613C14.7722 11.2889 14.9188 11.1799 15.0357 11.0425C15.1514 10.9038 15.2333 10.7401 15.275 10.5643C15.3167 10.3886 15.3171 10.2056 15.276 10.0296C15.2093 9.75123 15.1753 9.46599 15.1746 9.1797C15.1757 8.18166 15.5726 7.2248 16.2784 6.51908C16.9841 5.81336 17.9409 5.41642 18.939 5.41537C19.4525 5.41399 19.9607 5.51908 20.4315 5.72401C20.9023 5.92893 21.3256 6.22923 21.6745 6.60596C21.809 6.75073 21.9784 6.85866 22.1665 6.91949C22.3545 6.98032 22.555 6.99203 22.7488 6.9535C23.2281 6.86024 23.7005 6.73463 24.1628 6.57753C23.8474 7.22267 23.4445 7.82114 22.9653 8.35596V8.35596Z" fill="#3D5A80"/>
</svg>
