<svg width="28" height="28" viewBox="0 0 28 28" fill="none" xmlns="http://www.w3.org/2000/svg">
<path d="M14 0C6.2678 0 0 6.2678 0 14C0 21.7322 6.2678 28 14 28C21.7322 28 28 21.7322 28 14C28 6.2678 21.7322 0 14 0ZM14 2.8C20.1852 2.8 25.2 7.8148 25.2 14C25.2 19.5082 21.2186 24.0774 15.9797 25.0141V18.2492H19.291L19.7832 14.4348H16.0016V12.0039C16.0016 10.9007 16.309 10.1555 17.891 10.1555H19.8898V6.75117C18.9168 6.65177 17.9399 6.60345 16.9613 6.60625C14.0577 6.60625 12.0695 8.37843 12.0695 11.632V14.4402H8.78828V18.2547H12.0695V25.0223C6.80637 24.1055 2.8 19.5253 2.8 14C2.8 7.8148 7.8148 2.8 14 2.8Z" fill="#3D5A80"/>
</svg>
