<svg width="28" height="28" viewBox="0 0 28 28" fill="none" xmlns="http://www.w3.org/2000/svg">
<path d="M25.9754 2.83241C25.6433 2.55607 25.2424 2.37495 24.8154 2.30835C24.3885 2.24174 23.9515 2.29214 23.5509 2.45416L2.64323 10.8954C2.1961 11.0794 1.8155 11.395 1.55193 11.8003C1.28836 12.2056 1.15429 12.6815 1.16752 13.1648C1.18075 13.6481 1.34064 14.116 1.62599 14.5063C1.91133 14.8966 2.30863 15.1909 2.76515 15.3502L6.99431 16.821L9.35156 24.6163C9.3836 24.7204 9.43009 24.8195 9.48967 24.9107C9.49871 24.9247 9.51147 24.9351 9.52108 24.9487C9.58992 25.0448 9.67311 25.1297 9.76775 25.2005C9.79466 25.221 9.82043 25.2402 9.8492 25.2584C9.95996 25.3319 10.0826 25.3856 10.2117 25.4172L10.2255 25.4184L10.2334 25.4217C10.311 25.4375 10.39 25.4455 10.4692 25.4457C10.4768 25.4457 10.4836 25.442 10.4911 25.4419C10.6107 25.4398 10.7292 25.4192 10.8424 25.3809C10.8688 25.3719 10.8913 25.3569 10.9169 25.346C11.0013 25.311 11.0813 25.2662 11.1552 25.2124C11.2144 25.1625 11.2736 25.1127 11.3328 25.0628L14.4853 21.5822L19.1873 25.2246C19.6013 25.5469 20.1108 25.7221 20.6354 25.7225C21.1851 25.7218 21.7179 25.5322 22.1444 25.1853C22.5708 24.8385 22.8651 24.3556 22.9779 23.8176L26.7843 5.13157C26.8706 4.71101 26.8409 4.27491 26.6984 3.86992C26.5559 3.46494 26.306 3.10631 25.9754 2.83241V2.83241ZM10.9318 17.1924C10.77 17.3536 10.6595 17.5589 10.6139 17.7826L10.2528 19.5373L9.33811 16.512L14.0809 14.0423L10.9318 17.1924ZM20.6172 23.3801L15.0607 19.0757C14.8282 18.8961 14.5366 18.8106 14.244 18.8364C13.9513 18.8621 13.6791 18.9972 13.4816 19.2147L12.472 20.3291L12.8288 18.5949L21.0923 10.3314C21.2895 10.1344 21.4097 9.87332 21.431 9.59538C21.4524 9.31744 21.3735 9.04105 21.2086 8.81627C21.0437 8.5915 20.8038 8.4332 20.5323 8.37005C20.2608 8.3069 19.9757 8.34308 19.7285 8.47203L7.86902 14.6468L3.52393 13.0567L24.4988 4.66556L20.6172 23.3801Z" fill="#3D5A80"/>
</svg>
