<svg width="28" height="28" viewBox="0 0 28 28" fill="none" xmlns="http://www.w3.org/2000/svg">
<path d="M19.3667 16.3334C19.1334 16.2167 17.6167 15.5167 17.3834 15.4C17.15 15.2834 16.9167 15.2834 16.6834 15.5167C16.45 15.75 15.9834 16.45 15.75 16.6834C15.6334 16.9167 15.4 16.9167 15.1667 16.8C14.35 16.45 13.5334 15.9834 12.8334 15.4C12.25 14.8167 11.6667 14.1167 11.2 13.4167C11.0834 13.1834 11.2 12.95 11.3167 12.8334C11.4334 12.7167 11.55 12.4834 11.7834 12.3667C11.9 12.25 12.0167 12.0167 12.0167 11.9C12.1334 11.7834 12.1334 11.55 12.0167 11.4334C11.9 11.3167 11.3167 9.9167 11.0834 9.33337C10.9667 8.5167 10.7334 8.5167 10.5 8.5167C10.3834 8.5167 10.15 8.5167 9.91671 8.5167C9.68337 8.5167 9.33337 8.75003 9.21671 8.8667C8.51671 9.5667 8.16671 10.3834 8.16671 11.3167C8.28337 12.3667 8.63337 13.4167 9.33337 14.35C10.6167 16.2167 12.25 17.7334 14.2334 18.6667C14.8167 18.9 15.2834 19.1334 15.8667 19.25C16.45 19.4834 17.0334 19.4834 17.7334 19.3667C18.55 19.25 19.25 18.6667 19.7167 17.9667C19.95 17.5 19.95 17.0334 19.8334 16.5667C19.8334 16.5667 19.6 16.45 19.3667 16.3334ZM22.2834 5.7167C17.7334 1.1667 10.3834 1.1667 5.83337 5.7167C2.10004 9.45003 1.40004 15.1667 3.96671 19.7167L2.33337 25.6667L8.51671 24.0334C10.2667 24.9667 12.1334 25.4334 14 25.4334C20.4167 25.4334 25.55 20.3 25.55 13.8834C25.6667 10.85 24.3834 7.93337 22.2834 5.7167ZM19.1334 22.05C17.6167 22.9834 15.8667 23.5667 14 23.5667C12.25 23.5667 10.6167 23.1 9.10004 22.2834L8.75004 22.05L5.13337 22.9834L6.06671 19.4834L5.83337 19.1334C3.03337 14.4667 4.43337 8.63337 8.98337 5.7167C13.5334 2.80003 19.3667 4.3167 22.1667 8.75003C24.9667 13.3 23.6834 19.25 19.1334 22.05Z" fill="#3D5A80"/>
</svg>
